<svg id="Layer_3" data-name="Layer 3" xmlns="http://www.w3.org/2000/svg" viewBox="135 443.73 809.02 127.5"><defs><style>.cls-1{fill:#333;}</style></defs><path class="cls-1" d="M316.15,528.82H305.84l4.57-9.57h7.81a10.26,10.26,0,0,0,2.72-.37,3.59,3.59,0,0,0,2.28-3.17,3.6,3.6,0,0,0-1.09-2.63,3.67,3.67,0,0,0-2.69-1.09h-13.6l4.57-9.58h7.51a8.05,8.05,0,0,0,2.25-.3,3.07,3.07,0,0,0,1.71-1.35,3.24,3.24,0,0,0,.43-1.58,3.55,3.55,0,0,0-.79-2.23,2.94,2.94,0,0,0-2.14-1.13q-2.81-.06-14.15-.06v33.06h-11V498.75a10.62,10.62,0,0,0-1.59-1.71l-1-1v-9.95h28a29.93,29.93,0,0,1,5.67.55,10.29,10.29,0,0,1,5.7,3.6,10.57,10.57,0,0,1,2.41,6.28l.06.74a10.13,10.13,0,0,1-2,6,8.56,8.56,0,0,1-5.34,3.51,7.3,7.3,0,0,1,2.44.8,9.41,9.41,0,0,1,4.24,4.08,12,12,0,0,1,1.44,5.74,12.29,12.29,0,0,1-.67,4,10.33,10.33,0,0,1-4.06,5.25,12.28,12.28,0,0,1-6.31,2.13Z"/><path class="cls-1" d="M353.36,528.82H341.65v-9.76l2.37-2.5V483.07h9.34Z"/><path class="cls-1" d="M378.79,529.74a17,17,0,0,1-8.9-2.23,15.1,15.1,0,0,1-5.71-5.92,17.17,17.17,0,0,1,0-16,15,15,0,0,1,5.71-5.85,17.15,17.15,0,0,1,8.9-2.2,17.41,17.41,0,0,1,9,2.2,15,15,0,0,1,5.7,5.85,16.44,16.44,0,0,1,2,8,16.23,16.23,0,0,1-3.75,10.53,15.75,15.75,0,0,1-10.59,5.52v-8.91a6.11,6.11,0,0,0,3.27-2.75,8.61,8.61,0,0,0,1.12-4.39,8,8,0,0,0-1.76-5.21,6.09,6.09,0,0,0-5-2.17,5.86,5.86,0,0,0-4.85,2.17,8.1,8.1,0,0,0-1.73,5.21,8.76,8.76,0,0,0,1.19,4.58,5.78,5.78,0,0,0,3.44,2.68l4,8.79A18.13,18.13,0,0,1,378.79,529.74Z"/><path class="cls-1" d="M420.94,529.8a16.62,16.62,0,0,1-11.86-4.45,15.3,15.3,0,0,1-4.73-11.66,15,15,0,0,1,4.73-11.55,16.82,16.82,0,0,1,11.86-4.37l1.53.06,3.35-1.15,9.52,4.94-8.24,7.62a6.36,6.36,0,0,0-5.73-2.93,7,7,0,0,0-5,2,7.15,7.15,0,0,0-2,5.42,7.4,7.4,0,0,0,2,5.5,6.89,6.89,0,0,0,5,2,6.6,6.6,0,0,0,5.73-3l6.29,6a12.07,12.07,0,0,1-2.56,2.62,14.3,14.3,0,0,1-4.09,2.13A17.59,17.59,0,0,1,420.94,529.8Z"/><path class="cls-1" d="M472.79,528.82h-9.94l-5.92-9.88-3.66,4.58v5.3h-9.76V495.4l-2.5-2.51v-9.82h12.26v27.39l9.28-12.32h9.63l-9.45,14Z"/><path class="cls-1" d="M494.08,529.8a16.6,16.6,0,0,1-11.86-4.45,15.3,15.3,0,0,1-4.73-11.66,15,15,0,0,1,4.73-11.55,16.8,16.8,0,0,1,11.86-4.37l1.53.06,3.35-1.15,9.52,4.94-8.24,7.62a6.36,6.36,0,0,0-5.73-2.93,7,7,0,0,0-5,2,7.12,7.12,0,0,0-2.05,5.42,7.36,7.36,0,0,0,2.05,5.5,6.89,6.89,0,0,0,5,2,6.6,6.6,0,0,0,5.73-3l6.29,6a11.91,11.91,0,0,1-2.57,2.62,14.11,14.11,0,0,1-4.08,2.13A17.59,17.59,0,0,1,494.08,529.8Z"/><path class="cls-1" d="M526.41,528.82h-9.82V495.4L514.15,493v-9.95h12.26Zm20.68,0h-9.7V511c0-1.79-.42-3-1.28-3.75a5.51,5.51,0,0,0-3.48-1.13,11.38,11.38,0,0,0-2.07.31l-3.6-8a18,18,0,0,1,6.16-1q8.73,0,12.87,5.92a7.24,7.24,0,0,1,.77,1.73,6.67,6.67,0,0,1,.33,1.93Z"/><path class="cls-1" d="M572.47,529.62a17.1,17.1,0,0,1-8.88-2.2,15,15,0,0,1-5.67-5.86,16.51,16.51,0,0,1-2-8A15.29,15.29,0,0,1,560.57,502a16.51,16.51,0,0,1,11.9-4.45,18.83,18.83,0,0,1,6.71,1.16v-.43h9.7v18.24l2.56,2.5v9.76h-12.2V508.94a6.46,6.46,0,0,0-3-2.08,11.32,11.32,0,0,0-3.81-.67,5.85,5.85,0,0,0-4.85,2.17,8,8,0,0,0-1.74,5.21,8.15,8.15,0,0,0,1.74,5.28,5.88,5.88,0,0,0,4.85,2.17,7.15,7.15,0,0,0,2.56-.43l3.6,8A18,18,0,0,1,572.47,529.62Z"/><path class="cls-1" d="M611.14,528.82H598.76V519l2.56-2.56V498.32h9.82Zm-4.88-35.25a5.36,5.36,0,0,1-4-1.68,5.54,5.54,0,0,1-1.64-4,5.62,5.62,0,0,1,5.61-5.61,5.52,5.52,0,0,1,4,1.65,5.37,5.37,0,0,1,1.67,4,5.72,5.72,0,0,1-5.67,5.68Z"/><path class="cls-1" d="M631.45,528.82h-12.2v-9.7l2.5-2.5v-18.3h9.7Zm20.68,0h-9.7V511.13a4.91,4.91,0,0,0-1.25-3.81,5.17,5.17,0,0,0-3.44-1.19,12.6,12.6,0,0,0-2.08.43l-3.6-8a18.68,18.68,0,0,1,6.16-1q8.67,0,12.81,5.86a7.33,7.33,0,0,1,.77,1.74,6.56,6.56,0,0,1,.33,1.92Z"/><path class="cls-1" d="M735.64,528.82H721.85V506l-13.42,8.84L695,506v22.87H683.85v-44.1l24.58,17.08L733,484.72v31.6l2.62,2.56Z"/><path class="cls-1" d="M758.45,529.62a17.09,17.09,0,0,1-8.87-2.2,15,15,0,0,1-5.67-5.86,16.41,16.41,0,0,1-2-8A15.29,15.29,0,0,1,746.56,502a16.48,16.48,0,0,1,11.89-4.45,18.79,18.79,0,0,1,6.71,1.16v-.43h9.7v18.24l2.56,2.5v9.76h-12.2V508.94a6.38,6.38,0,0,0-3-2.08,11.38,11.38,0,0,0-3.82-.67,5.86,5.86,0,0,0-4.85,2.17,8.1,8.1,0,0,0-1.73,5.21,8.2,8.2,0,0,0,1.73,5.28,5.89,5.89,0,0,0,4.85,2.17,7.21,7.21,0,0,0,2.57-.43l3.59,8A17.93,17.93,0,0,1,758.45,529.62Z"/><path class="cls-1" d="M796.94,528.82h-12.2v-9.7l2.51-2.5v-18.3h9.69Zm20.68,0h-9.7V511.13a4.91,4.91,0,0,0-1.25-3.81,5.17,5.17,0,0,0-3.44-1.19,12.82,12.82,0,0,0-2.08.43l-3.6-8a18.68,18.68,0,0,1,6.16-1q8.67,0,12.82,5.86a7.78,7.78,0,0,1,.76,1.74,6.56,6.56,0,0,1,.33,1.92Z"/><path class="cls-1" d="M837.33,528.82H824.94V519l2.56-2.56V498.32h9.83Zm-4.88-35.25a5.36,5.36,0,0,1-4-1.68,5.51,5.51,0,0,1-1.65-4,5.63,5.63,0,0,1,5.62-5.61,5.5,5.5,0,0,1,4,1.65,5.34,5.34,0,0,1,1.68,4,5.74,5.74,0,0,1-5.67,5.68Z"/><path class="cls-1" d="M857.46,540.35h-9.58V510.52l-2.44-2.5v-9.7h12.08v.43a18.31,18.31,0,0,1,6.65-1.16,16.83,16.83,0,0,1,8.84,2.2,14.93,14.93,0,0,1,5.61,5.82,16.58,16.58,0,0,1,2,8,15.41,15.41,0,0,1-4.58,11.5,16.2,16.2,0,0,1-11.83,4.49,18.11,18.11,0,0,1-6.1-1l3.6-8a7.64,7.64,0,0,0,2.5.36,5.83,5.83,0,0,0,4.82-2.13,8.89,8.89,0,0,0,0-10.46,5.78,5.78,0,0,0-4.82-2.17,11.16,11.16,0,0,0-3.75.67,6.36,6.36,0,0,0-3,2.08Z"/><path class="cls-1" d="M906,529.62a17.06,17.06,0,0,1-8.87-2.2,15,15,0,0,1-5.68-5.86,16.51,16.51,0,0,1-2-8A15.26,15.26,0,0,1,894.06,502,16.48,16.48,0,0,1,906,497.59a18.79,18.79,0,0,1,6.71,1.16v-.43h9.7v18.24l2.56,2.5v9.76h-12.2V508.94a6.41,6.41,0,0,0-3-2.08,11.32,11.32,0,0,0-3.81-.67,5.86,5.86,0,0,0-4.85,2.17,8,8,0,0,0-1.74,5.21,8.15,8.15,0,0,0,1.74,5.28A5.89,5.89,0,0,0,906,521a7.11,7.11,0,0,0,2.56-.43l3.6,8A18,18,0,0,1,906,529.62Z"/><path class="cls-1" d="M944,528.82H932.24v-9.76l2.38-2.5V483.07H944Z"/><path class="cls-1" d="M230.62,443.74l-41.46,23.93v47.87L209,527v-6.78l-13.27-7.66v-35.9l31.09,18v35.9l-6.33-3.66v6.79l10.13,5.84h0l41.45-23.93V467.67Zm-31.09,25.18L230.62,451l31.09,17.95-31.09,17.95Zm66,7.8v35.83l-31.1,18V494.6l31.1-18Z"/><path class="cls-1" d="M198.26,488v6.78l13.12,7.58v35.9l-31.09-17.95v-35.9l6,3.44v-6.78l-9.77-5.64L135,499.4v47.87l41.45,23.93L218,547.27V499.4Zm-56.65,50.19V502.4l31.09-17.95v35.9L141.61,538.3ZM176.49,564,145.4,546l31.09-17.95L207.58,546Z"/></svg>